<svg xmlns="http://www.w3.org/2000/svg" xmlns:xlink="http://www.w3.org/1999/xlink" width="1080" zoomAndPan="magnify" viewBox="0 0 810 809.999993" height="1080" preserveAspectRatio="xMidYMid meet" version="1.0"><defs><g/></defs><g fill="#000000" fill-opacity="1"><g transform="translate(389.818342, 421.499999)"><g><path d="M 23.1875 0 L 20.90625 -7.484375 L 9.453125 -7.484375 L 7.171875 0 L 0 0 L 11.09375 -31.546875 L 19.234375 -31.546875 L 30.359375 0 Z M 19.3125 -13.0625 C 17.207031 -19.832031 16.019531 -23.660156 15.75 -24.546875 C 15.488281 -25.441406 15.300781 -26.144531 15.1875 -26.65625 C 14.71875 -24.820312 13.363281 -20.289062 11.125 -13.0625 Z M 19.3125 -13.0625 "/></g></g></g><path fill="#00bf63" d="M 575.367188 675.304688 L 573.828125 683.949219 C 566.542969 701.359375 545.222656 715.285156 509.871094 725.722656 C 474.277344 736.152344 432.359375 740.382812 384.121094 738.414062 C 338.085938 735.65625 301.269531 727.59375 273.667969 714.222656 C 264.824219 709.902344 257.539062 705.191406 251.8125 700.097656 L 244.59375 692.238281 C 240.628906 686.828125 238.625 681.1875 238.578125 675.304688 C 239.785156 657.265625 256.222656 642.253906 287.902344 630.273438 C 319.578125 618.292969 359.269531 612.074219 406.972656 611.621094 C 454.675781 612.074219 494.367188 618.292969 526.042969 630.273438 C 557.722656 642.253906 574.160156 657.265625 575.367188 675.304688 " fill-opacity="1" fill-rule="nonzero"/><path fill="#d00e00" d="M 625.667969 254.273438 L 622.082031 223.105469 C 609.128906 160.585938 577.636719 111.496094 527.40625 76.117188 C 476.976562 40.597656 418.566406 26.523438 353.167969 38.371094 C 290.34375 49.75 239.515625 81.441406 206.179688 133.046875 C 179.339844 174.597656 174.132812 197.535156 170.171875 214.476562 C 164.726562 237.777344 163.449219 254.875 164.847656 276.121094 C 169.136719 341.347656 206.164062 384.691406 240.054688 435.847656 C 280.996094 497.640625 369.332031 622.585938 407.253906 684.082031 C 456.265625 595.867188 534.21875 472.949219 565.910156 420.398438 C 597.597656 367.847656 627.117188 319.625 625.667969 254.273438 Z M 625.667969 254.273438 " fill-opacity="1" fill-rule="nonzero"/><path fill="#ffffff" d="M 490.609375 263.316406 L 488.972656 276.125 C 483.324219 301.78125 470.085938 321.78125 449.265625 336.121094 C 428.308594 350.441406 404.34375 355.324219 377.375 350.765625 C 351.71875 345.113281 331.71875 331.878906 317.378906 311.054688 C 312.785156 304.328125 309.105469 297.078125 306.339844 289.300781 L 302.976562 277.367188 C 301.226562 269.1875 300.601562 260.722656 301.101562 251.972656 C 303.386719 225.171875 313.972656 203.390625 332.863281 186.632812 C 351.753906 169.875 374.644531 161.960938 401.527344 162.890625 C 428.328125 165.175781 450.109375 175.765625 466.867188 194.65625 C 483.625 213.546875 491.539062 236.433594 490.609375 263.316406 " fill-opacity="1" fill-rule="nonzero"/></svg>